<?xml version="1.0" encoding="UTF-8" standalone="no"?>
<svg width="52px" height="52px" viewBox="0 0 52 52" version="1.1" xmlns="http://www.w3.org/2000/svg" xmlns:xlink="http://www.w3.org/1999/xlink" xmlns:sketch="http://www.bohemiancoding.com/sketch/ns">
    <!-- Generator: Sketch 3.4 (15588) - http://www.bohemiancoding.com/sketch -->
    <title>telephone46</title>
    <desc>Created with Sketch.</desc>
    <defs></defs>
    <g id="Page-1" stroke="none" stroke-width="1" fill="none" fill-rule="evenodd" sketch:type="MSPage">
        <g id="Main" sketch:type="MSArtboardGroup" transform="translate(-1041.000000, -598.000000)" fill="#5769CD">
            <g id="All" sketch:type="MSLayerGroup" transform="translate(415.000000, 45.000000)">
                <g id="Group" transform="translate(42.000000, 59.000000)" sketch:type="MSShapeGroup">
                    <g id="Phone-Call+Message" transform="translate(517.000000, 465.000000)">
                        <g id="Group" transform="translate(32.000000, 20.000000)">
                            <g id="telephone46" transform="translate(35.000000, 9.000000)">
                                <g id="Capa_1">
                                    <path d="M50.699702,41.1043563 L42.690361,33.0711034 C41.0950487,31.4776322 38.4531805,31.526046 36.8022923,33.1822759 L32.7671519,37.2281149 C32.5122178,37.0872069 32.2483438,36.940023 31.9709112,36.7838736 C29.4227622,35.3679195 25.9351862,33.4271839 22.2652378,29.744 C18.5844126,26.053046 16.6474499,22.550069 15.2312321,19.992954 C15.081788,19.722046 14.9386017,19.4608506 14.7972034,19.2128046 L17.5053754,16.5008851 L18.8368138,15.163977 C20.490235,13.5053563 20.5358281,10.8566437 18.9442407,9.25854023 L10.9348997,1.2243908 C9.34331232,-0.371471264 6.70025215,-0.323057471 5.04683095,1.33556322 L2.78952436,3.61235632 L2.85120917,3.67377011 C2.09430372,4.64234483 1.46181089,5.75944828 0.99112894,6.96411494 C0.557249284,8.1108046 0.287117479,9.20504598 0.163598854,10.3015287 C-0.893982808,19.0943103 3.11255014,27.1302529 13.985765,38.0348621 C29.015851,53.107092 41.1281261,51.9684713 41.650659,51.9128851 C42.7886991,51.7764598 43.8793582,51.5037586 44.9877479,51.072069 C46.178533,50.6055632 47.2916905,49.9721494 48.256894,49.2147126 L48.306212,49.2586437 L50.5930201,47.012931 C52.2430143,45.3546092 52.2905444,42.705 50.699702,41.1043563 L50.699702,41.1043563 Z" id="Shape"></path>
                                </g>
                            </g>
                        </g>
                    </g>
                </g>
            </g>
        </g>
    </g>
</svg>