<?xml version="1.0" encoding="UTF-8" standalone="no"?>
<svg width="166px" height="166px" viewBox="0 0 166 166" version="1.1" xmlns="http://www.w3.org/2000/svg" xmlns:xlink="http://www.w3.org/1999/xlink" xmlns:sketch="http://www.bohemiancoding.com/sketch/ns">
    <!-- Generator: Sketch 3.4 (15588) - http://www.bohemiancoding.com/sketch -->
    <title>Valve</title>
    <desc>Created with Sketch.</desc>
    <defs>
        <filter x="-50%" y="-50%" width="200%" height="200%" filterUnits="objectBoundingBox" id="filter-1">
            <feOffset dx="0" dy="0" in="SourceAlpha" result="shadowOffsetOuter1"></feOffset>
            <feGaussianBlur stdDeviation="3" in="shadowOffsetOuter1" result="shadowBlurOuter1"></feGaussianBlur>
            <feColorMatrix values="0 0 0 0 0   0 0 0 0 0   0 0 0 0 0  0 0 0 0.14 0" in="shadowBlurOuter1" type="matrix" result="shadowMatrixOuter1"></feColorMatrix>
            <feMerge>
                <feMergeNode in="shadowMatrixOuter1"></feMergeNode>
                <feMergeNode in="SourceGraphic"></feMergeNode>
            </feMerge>
        </filter>
        <ellipse id="path-2" cx="54.7352496" cy="54.9230769" rx="54.7352496" ry="54.9230769"></ellipse>
        <filter x="-50%" y="-50%" width="200%" height="200%" filterUnits="objectBoundingBox" id="filter-4">
            <feOffset dx="0" dy="2" in="SourceAlpha" result="shadowOffsetOuter1"></feOffset>
            <feGaussianBlur stdDeviation="0" in="shadowOffsetOuter1" result="shadowBlurOuter1"></feGaussianBlur>
            <feColorMatrix values="0 0 0 0 0   0 0 0 0 0   0 0 0 0 0  0 0 0 0.14 0" in="shadowBlurOuter1" type="matrix" result="shadowMatrixOuter1"></feColorMatrix>
            <feMerge>
                <feMergeNode in="shadowMatrixOuter1"></feMergeNode>
                <feMergeNode in="SourceGraphic"></feMergeNode>
            </feMerge>
        </filter>
        <path id="path-5" d="M0,0.527108974 L45.6636422,0.527108974 L45.6636422,51.1089744 L0,51.1089744 L0,0.527108974 Z"></path>
    </defs>
    <g id="Page-1" stroke="none" stroke-width="1" fill="none" fill-rule="evenodd" sketch:type="MSPage">
        <g id="Main" sketch:type="MSArtboardGroup" transform="translate(-1303.000000, -991.000000)">
            <g id="All" sketch:type="MSLayerGroup" transform="translate(415.000000, 45.000000)">
                <g id="Group" transform="translate(42.000000, 59.000000)">
                    <g id="Icons" transform="translate(0.000000, 894.000000)">
                        <g id="Valve" transform="translate(853.000000, 0.000000)">
                            <ellipse id="Oval-1-Copy-4" stroke="#5769CD" stroke-width="2" fill="#FFFFFF" filter="url(#filter-1)" sketch:type="MSShapeGroup" cx="76.02118" cy="76.2820513" rx="76.02118" ry="76.2820513"></ellipse>
                            <g id="Group" transform="translate(21.000000, 20.000000)">
                                <g id="Oval-23-Copy-2" transform="translate(0.243570, 0.358974)">
                                    <mask id="mask-3" sketch:name="Mask" fill="white">
                                        <use xlink:href="#path-2"></use>
                                    </mask>
                                    <use id="Mask" fill="#767676" sketch:type="MSShapeGroup" xlink:href="#path-2"></use>
                                    <path d="M54.7352496,118.237179 C84.9646933,118.237179 109.470499,93.6472804 109.470499,63.3141026 C109.470499,32.9809248 84.9646933,8.39102564 54.7352496,8.39102564 C24.505806,8.39102564 0,32.9809248 0,63.3141026 C0,93.6472804 24.505806,118.237179 54.7352496,118.237179 Z" id="Oval-23-Copy" fill="#636363" sketch:type="MSShapeGroup" mask="url(#mask-3)"></path>
                                </g>
                                <path d="M23.8101362,33.9230769 C20.4513091,33.9230769 17.7284418,43.8273418 17.7284418,56.0448718 C17.7284418,68.2624017 20.4513091,78.1666667 23.8101362,78.1666667 L86.9077156,78.1666667 C90.2665427,78.1666667 92.98941,68.2624017 92.98941,56.0448718 C92.98941,43.8273418 90.2665427,33.9230769 86.9077156,33.9230769 L23.8101362,33.9230769 Z" id="Oval-40" fill="#EFEFEF" filter="url(#filter-4)" sketch:type="MSShapeGroup"></path>
                                <path d="M27.6956631,33.9230769 C24.7100391,33.9230769 22.2897126,43.8273418 22.2897126,56.0448718 C22.2897126,68.2624017 24.7100391,78.1666667 27.6956631,78.1666667 L83.7824004,78.1666667 C86.7680245,78.1666667 89.188351,68.2624017 89.188351,56.0448718 C89.188351,43.8273418 86.7680245,33.9230769 83.7824004,33.9230769 L27.6956631,33.9230769 Z" id="Oval-40-Copy-2" fill="#FFFFFF" sketch:type="MSShapeGroup"></path>
                                <g id="Page-1" transform="translate(32.172466, 27.057692)">
                                    <g id="Group-3">
                                        <mask id="mask-6" sketch:name="Clip 2" fill="white">
                                            <use xlink:href="#path-5"></use>
                                        </mask>
                                        <g id="Clip-2"></g>
                                        <path d="M27.4415934,43.7118276 C27.1093809,42.9162058 26.5901562,42.2197506 25.9394149,41.6750968 L25.9394149,32.8103596 L35.1797893,38.1821417 C35.2284429,38.3827635 35.2923007,38.580334 35.365281,38.775616 C33.2442901,41.0778083 30.5174104,42.8071224 27.4415934,43.7118276 L27.4415934,43.7118276 Z M38.0199406,20.2306865 C38.2677697,20.3153596 38.5209202,20.3779109 38.7771116,20.4259686 C39.5707727,22.426084 40.0116955,24.6046994 40.0116955,26.8855327 C40.0116955,28.5477186 39.7745095,30.1542186 39.3419489,31.6790968 C38.9504399,31.754616 38.5642523,31.8728532 38.1902281,32.0391481 L28.8707916,26.6215968 L38.0199406,20.2306865 Z M34.5427318,14.1624494 C34.5298082,14.2303404 34.514604,14.2974686 34.503961,14.3653596 L25.9394149,20.3473981 L25.9394149,9.96083397 C26.0245586,9.88989167 26.1043809,9.81360962 26.1849633,9.73732756 C29.3801335,10.4215776 32.2529739,11.9853596 34.5427318,14.1624494 L34.5427318,14.1624494 Z M18.8884505,9.73732756 C18.9682727,9.81360962 19.0488551,9.88989167 19.1332387,9.96083397 L19.1332387,20.9599429 L10.602902,16.0008468 C10.5512076,15.4790776 10.4219716,14.9618853 10.2136736,14.4652891 C12.5520851,12.1287699 15.545039,10.4528532 18.8884505,9.73732756 L18.8884505,9.73732756 Z M5.06171823,26.8855327 C5.06171823,25.1325712 5.32247088,23.4406353 5.80140431,21.8425263 C6.12601475,21.8127763 6.44910477,21.7540391 6.7668733,21.6632635 L16.201862,27.1494686 L8.26373033,32.6936481 C7.52784531,32.451834 6.74634758,32.3732635 5.97397239,32.4648019 C5.38556846,30.7110776 5.06171823,28.8360647 5.06171823,26.8855327 L5.06171823,26.8855327 Z M19.1332387,41.6750968 C18.4824974,42.2197506 17.9640329,42.9162058 17.6310601,43.7118276 C15.2706025,43.0176609 13.115402,41.8375776 11.2817712,40.284475 C11.5812946,39.7245647 11.7812303,39.1196481 11.8678945,38.4979494 L19.1332387,33.4229045 L19.1332387,41.6750968 Z M44.6064157,33.7204045 C44.3540253,33.382475 44.0674255,33.0872635 43.7580193,32.8271417 C44.2848461,30.934584 44.5729663,28.9436224 44.5729663,26.8855327 C44.5729663,24.1965904 44.0909921,21.6197827 43.211427,19.2344429 C45.3210148,17.4227442 45.7011207,14.2585647 44.0157311,11.9945135 C42.4284089,9.86166731 39.5578491,9.26666731 37.2825352,10.4696353 C34.6339573,8.07132756 31.4030571,6.31073782 27.8315821,5.42281474 C27.6080798,2.68276346 25.3251638,0.527032692 22.5367069,0.527032692 C19.7474898,0.527032692 17.4645738,2.68276346 17.2410715,5.42281474 C13.2149898,6.42363526 9.62374924,8.53664808 6.80868495,11.418584 C5.26013351,10.9654686 3.52761082,11.2164365 2.13566301,12.2592122 C-0.217192511,14.0228532 -0.699927005,17.3662955 1.05768268,19.727225 C1.19832186,19.9171673 1.35340507,20.0903276 1.51380976,20.2550968 C0.856226551,22.3498019 0.500447428,24.576475 0.500447428,26.8855327 C0.500447428,29.752975 1.05312141,32.4922635 2.04747844,35.0088083 C0.967977685,36.8113532 1.01130976,39.1631288 2.34244062,40.9519429 C3.57626437,42.6095519 5.58550416,43.3380455 7.4883143,43.0168981 C10.3717977,45.7271994 13.9774822,47.6716288 17.9837984,48.5198853 C18.9142977,50.0691737 20.6019679,51.1088981 22.5367069,51.1088981 C24.4706857,51.1088981 26.1591161,50.0691737 27.0888551,48.5198853 C31.5969111,47.5655968 35.598666,45.2237378 38.6334315,41.9634429 C40.235958,42.5088596 42.0695889,42.2815391 43.5276751,41.1884173 C45.8805306,39.4247763 46.3632651,36.081334 44.6064157,33.7204045 L44.6064157,33.7204045 Z" id="Fill-1" fill="#F13535" sketch:type="MSShapeGroup" mask="url(#mask-6)"></path>
                                    </g>
                                    <path d="M22.8317451,29.527409 C21.539385,29.527409 20.491053,28.4762423 20.491053,27.1786846 C20.491053,25.8818897 21.539385,24.8299603 22.8317451,24.8299603 C24.1241051,24.8299603 25.1724372,25.8818897 25.1724372,27.1786846 C25.1724372,28.4762423 24.1241051,29.527409 22.8317451,29.527409 M22.8317451,22.7421205 C20.3899448,22.7421205 18.4103533,24.7285051 18.4103533,27.1786846 C18.4103533,29.6288641 20.3899448,31.6152487 22.8317451,31.6152487 C25.2735454,31.6152487 27.2531369,29.6288641 27.2531369,27.1786846 C27.2531369,24.7285051 25.2735454,22.7421205 22.8317451,22.7421205" id="Fill-4" fill="#D11F1F" sketch:type="MSShapeGroup"></path>
                                    <path d="M22.8317451,24.8301128 C21.539385,24.8301128 20.491053,25.8812795 20.491053,27.1788372 C20.491053,28.4756321 21.539385,29.5275615 22.8317451,29.5275615 C24.1241051,29.5275615 25.1724372,28.4756321 25.1724372,27.1788372 C25.1724372,25.8812795 24.1241051,24.8301128 22.8317451,24.8301128" id="Fill-6" fill="#B91919" sketch:type="MSShapeGroup"></path>
                                </g>
                            </g>
                        </g>
                    </g>
                </g>
            </g>
        </g>
    </g>
</svg>