<?xml version="1.0" encoding="UTF-8" standalone="no"?>
<svg width="166px" height="166px" viewBox="0 0 166 166" version="1.1" xmlns="http://www.w3.org/2000/svg" xmlns:xlink="http://www.w3.org/1999/xlink" xmlns:sketch="http://www.bohemiancoding.com/sketch/ns">
    <!-- Generator: Sketch 3.4 (15588) - http://www.bohemiancoding.com/sketch -->
    <title>Warehouse</title>
    <desc>Created with Sketch.</desc>
    <defs>
        <filter x="-50%" y="-50%" width="200%" height="200%" filterUnits="objectBoundingBox" id="filter-1">
            <feOffset dx="0" dy="0" in="SourceAlpha" result="shadowOffsetOuter1"></feOffset>
            <feGaussianBlur stdDeviation="3" in="shadowOffsetOuter1" result="shadowBlurOuter1"></feGaussianBlur>
            <feColorMatrix values="0 0 0 0 0   0 0 0 0 0   0 0 0 0 0  0 0 0 0.14 0" in="shadowBlurOuter1" type="matrix" result="shadowMatrixOuter1"></feColorMatrix>
            <feMerge>
                <feMergeNode in="shadowMatrixOuter1"></feMergeNode>
                <feMergeNode in="SourceGraphic"></feMergeNode>
            </feMerge>
        </filter>
        <ellipse id="path-2" cx="54.7352496" cy="54.9230769" rx="54.7352496" ry="54.9230769"></ellipse>
        <filter x="-50%" y="-50%" width="200%" height="200%" filterUnits="objectBoundingBox" id="filter-4">
            <feOffset dx="0" dy="-2" in="SourceAlpha" result="shadowOffsetOuter1"></feOffset>
            <feGaussianBlur stdDeviation="0" in="shadowOffsetOuter1" result="shadowBlurOuter1"></feGaussianBlur>
            <feColorMatrix values="0 0 0 0 1   0 0 0 0 0.963196417   0 0 0 0 0.926392835  0 0 0 0.7 0" in="shadowBlurOuter1" type="matrix" result="shadowMatrixOuter1"></feColorMatrix>
            <feMerge>
                <feMergeNode in="shadowMatrixOuter1"></feMergeNode>
                <feMergeNode in="SourceGraphic"></feMergeNode>
            </feMerge>
        </filter>
        <filter x="-50%" y="-50%" width="200%" height="200%" filterUnits="objectBoundingBox" id="filter-5">
            <feOffset dx="0" dy="1" in="SourceAlpha" result="shadowOffsetOuter1"></feOffset>
            <feGaussianBlur stdDeviation="0" in="shadowOffsetOuter1" result="shadowBlurOuter1"></feGaussianBlur>
            <feColorMatrix values="0 0 0 0 0   0 0 0 0 0   0 0 0 0 0  0 0 0 0.14 0" in="shadowBlurOuter1" type="matrix" result="shadowMatrixOuter1"></feColorMatrix>
            <feMerge>
                <feMergeNode in="shadowMatrixOuter1"></feMergeNode>
                <feMergeNode in="SourceGraphic"></feMergeNode>
            </feMerge>
        </filter>
        <filter x="-50%" y="-50%" width="200%" height="200%" filterUnits="objectBoundingBox" id="filter-6">
            <feOffset dx="0" dy="1" in="SourceAlpha" result="shadowOffsetOuter1"></feOffset>
            <feGaussianBlur stdDeviation="0" in="shadowOffsetOuter1" result="shadowBlurOuter1"></feGaussianBlur>
            <feColorMatrix values="0 0 0 0 0   0 0 0 0 0   0 0 0 0 0  0 0 0 0.14 0" in="shadowBlurOuter1" type="matrix" result="shadowMatrixOuter1"></feColorMatrix>
            <feMerge>
                <feMergeNode in="shadowMatrixOuter1"></feMergeNode>
                <feMergeNode in="SourceGraphic"></feMergeNode>
            </feMerge>
        </filter>
        <filter x="-50%" y="-50%" width="200%" height="200%" filterUnits="objectBoundingBox" id="filter-7">
            <feOffset dx="0" dy="1" in="SourceAlpha" result="shadowOffsetOuter1"></feOffset>
            <feGaussianBlur stdDeviation="0" in="shadowOffsetOuter1" result="shadowBlurOuter1"></feGaussianBlur>
            <feColorMatrix values="0 0 0 0 0   0 0 0 0 0   0 0 0 0 0  0 0 0 0.14 0" in="shadowBlurOuter1" type="matrix" result="shadowMatrixOuter1"></feColorMatrix>
            <feMerge>
                <feMergeNode in="shadowMatrixOuter1"></feMergeNode>
                <feMergeNode in="SourceGraphic"></feMergeNode>
            </feMerge>
        </filter>
    </defs>
    <g id="Page-1" stroke="none" stroke-width="1" fill="none" fill-rule="evenodd" sketch:type="MSPage">
        <g id="Main" sketch:type="MSArtboardGroup" transform="translate(-670.000000, -991.000000)">
            <g id="All" sketch:type="MSLayerGroup" transform="translate(415.000000, 45.000000)">
                <g id="Group" transform="translate(42.000000, 59.000000)">
                    <g id="Icons" transform="translate(0.000000, 894.000000)">
                        <g id="Warehouse" transform="translate(220.000000, 0.000000)">
                            <ellipse id="Oval-1-Copy" stroke="#5769CD" stroke-width="2" fill="#FFFFFF" filter="url(#filter-1)" sketch:type="MSShapeGroup" cx="76.02118" cy="76.2820513" rx="76.02118" ry="76.2820513"></ellipse>
                            <g id="Group" transform="translate(21.000000, 20.000000)">
                                <g id="Path-23" transform="translate(0.747352, 0.410256)">
                                    <mask id="mask-3" sketch:name="Mask" fill="white">
                                        <use xlink:href="#path-2"></use>
                                    </mask>
                                    <use id="Mask" fill="#76DFEB" sketch:type="MSShapeGroup" xlink:href="#path-2"></use>
                                    <path d="M-4.39227549,84.2670016 C-4.39227549,84.2670016 3.84566362,66.2334889 30.630926,71.2007778 C57.4161884,76.1680667 53.3994095,53.7069034 79.6222401,59.0465569 C105.845071,64.3862104 110.986712,75.6997014 110.986712,75.6997014 L75.6069151,121.52094 L4.54435947,100.549236 L-4.39227549,84.2670016 Z" fill="#EFC193" filter="url(#filter-4)" sketch:type="MSShapeGroup" mask="url(#mask-3)"></path>
                                    <path d="M-4.4449218,-5.81804763 C-4.4449218,-5.81804763 3.79301731,-23.8515603 30.5782797,-18.8842715 C57.3635421,-13.9169826 53.3467632,-36.3781459 79.5695938,-31.0384923 C105.792424,-25.6988388 110.934066,-14.3853479 110.934066,-14.3853479 L75.5542688,31.4358903 L4.49171315,10.4641865 L-4.4449218,-5.81804763 Z" id="Path-23-Copy" fill="#52D6E5" sketch:type="MSShapeGroup" mask="url(#mask-3)">
                                        <g transform="translate(53.244572, -0.214716) rotate(-181.000000) translate(-53.244572, 0.214716) "></g>
                                    </path>
                                    <ellipse id="Oval-23-Copy" opacity="0.1" fill="#2097A5" sketch:type="MSShapeGroup" mask="url(#mask-3)" cx="54.7352496" cy="64.0769231" rx="54.7352496" ry="54.9230769"></ellipse>
                                </g>
                                <g transform="translate(15.191377, 33.211538)" sketch:type="MSShapeGroup">
                                    <rect id="Rectangle-21-Copy-6" fill="#4363A9" x="11.0378424" y="11.7347169" width="69.0942414" height="38.4637943"></rect>
                                    <rect id="Rectangle-21-Copy-7" fill="#4F6FB9" x="11.0378424" y="31.2925784" width="23.8972564" height="18.9059328"></rect>
                                    <rect id="Rectangle-21-Copy-8" fill="#4F6FB9" x="56.2348273" y="31.2925784" width="23.8972564" height="18.9059328"></rect>
                                    <rect id="Rectangle-24-Copy-4" fill="#D5D5D5" x="33.5270051" y="37.2059553" width="24.1159159" height="1.18114144"></rect>
                                    <rect id="Rectangle-27" fill="#E3E3E3" x="33.5270051" y="26.5756824" width="24.1159159" height="23.6228288" rx="0.5852"></rect>
                                    <rect id="Rectangle-24-Copy-5" fill="#D5D5D5" x="33.5270051" y="35.4342432" width="24.1159159" height="1.18114144"></rect>
                                    <rect id="Rectangle-24-Copy-6" fill="#D5D5D5" x="33.5270051" y="33.662531" width="24.1159159" height="1.18114144"></rect>
                                    <rect id="Rectangle-24-Copy-7" fill="#D5D5D5" x="33.5270051" y="31.8908189" width="24.1159159" height="1.18114144"></rect>
                                    <rect id="Rectangle-24-Copy-8" fill="#D5D5D5" x="33.5270051" y="30.1191067" width="24.1159159" height="1.18114144"></rect>
                                    <rect id="Rectangle-24-Copy-9" fill="#D5D5D5" x="33.5270051" y="28.3473945" width="24.1159159" height="1.18114144"></rect>
                                    <polygon id="Triangle-1" fill="#3B5CA6" points="45.5849631 0 80.1320838 11.7347169 11.0378424 11.7347169 "></polygon>
                                    <rect id="Rectangle-29" fill="#4F6FB9" x="11.0378424" y="11.7347169" width="69.0942414" height="2.60771487"></rect>
                                    <rect id="Rectangle-28" fill="#243A6B" x="33.5270051" y="38.9776675" width="24.1159159" height="11.2208437"></rect>
                                    <rect id="Rectangle-33" fill="#FEED71" x="0" y="40.7493797" width="15.2930199" height="14.1736973" rx="0.8778"></rect>
                                    <rect id="Rectangle-33-Copy" fill="#E6D555" x="15.8812129" y="40.7493797" width="15.2930199" height="14.1736973" rx="0.8778"></rect>
                                    <rect id="Rectangle-33-Copy-2" fill="#E6D455" x="0" y="25.9851117" width="15.2930199" height="14.1736973" rx="0.8778"></rect>
                                    <path d="M6.99557816,33.0719603 L1.76457922,28.3954079 L2.35214889,27.7568238 L7.64650993,32.4900224 L12.940871,27.7568238 L13.5284407,28.3954079 L8.2974417,33.0719603 L13.5284407,37.7485127 L12.940871,38.3870968 L7.64650993,33.6538982 L2.35214889,38.3870968 L1.76457922,37.7485127 L6.99557816,33.0719603 Z" id="Shape" fill="#B6A31C"></path>
                                    <path d="M6.99557816,47.8362283 L1.76457922,43.1596759 L2.35214889,42.5210918 L7.64650993,47.2542904 L12.940871,42.5210918 L13.5284407,43.1596759 L8.2974417,47.8362283 L13.5284407,52.5127807 L12.940871,53.1513648 L7.64650993,48.4181662 L2.35214889,53.1513648 L1.76457922,52.5127807 L6.99557816,47.8362283 Z" id="Shape-Copy" fill="#C0B039"></path>
                                    <path d="M22.8767911,47.8362283 L17.6457922,43.1596759 L18.2333618,42.5210918 L23.5277229,47.2542904 L28.8220839,42.5210918 L29.4096536,43.1596759 L24.1786546,47.8362283 L29.4096536,52.5127807 L28.8220839,53.1513648 L23.5277229,48.4181662 L18.2333618,53.1513648 L17.6457922,52.5127807 L22.8767911,47.8362283 Z" id="Shape-Copy-2" fill="#AF9C13"></path>
                                </g>
                                <path d="M61.5642965,25.733843 C62.2351987,26.1232708 63.0141258,26.3461538 63.8449319,26.3461538 C66.3640522,26.3461538 68.4062027,24.2969956 68.4062027,21.7692308 C68.4062027,20.4064611 67.81265,19.1827989 66.8708017,18.3443429 C66.6912785,16.1145415 64.9190123,14.3361937 62.6968365,14.1560544 C61.8612479,13.2109742 60.6417703,12.6153846 59.2836611,12.6153846 C56.7645408,12.6153846 54.7223903,14.6645429 54.7223903,17.1923077 C52.20327,17.1923077 50.1611195,19.241466 50.1611195,21.7692308 C50.1611195,24.2969956 52.20327,26.3461538 54.7223903,26.3461538 C55.5531965,26.3461538 56.3321235,26.1232708 57.0030257,25.733843 C57.6739279,26.1232708 58.452855,26.3461538 59.2836611,26.3461538 C60.1144673,26.3461538 60.8933943,26.1232708 61.5642965,25.733843 Z" id="Oval-9" fill="#FFFFFF" filter="url(#filter-5)" sketch:type="MSShapeGroup"></path>
                                <path d="M20.9879917,31.243673 C21.4632141,31.5249263 22.0149541,31.6858974 22.6034418,31.6858974 C24.3878186,31.6858974 25.8343419,30.2059498 25.8343419,28.3803419 C25.8343419,27.3961194 25.4139087,26.5123633 24.7467662,25.9068117 C24.6196039,24.2963996 23.3642487,23.0120373 21.7902075,22.8819367 C21.1983322,22.1993788 20.3345356,21.7692308 19.3725416,21.7692308 C17.5881647,21.7692308 16.1416415,23.2491784 16.1416415,25.0747863 C14.3572646,25.0747863 12.9107413,26.554734 12.9107413,28.3803419 C12.9107413,30.2059498 14.3572646,31.6858974 16.1416415,31.6858974 C16.7301291,31.6858974 17.2818691,31.5249263 17.7570915,31.243673 C18.2323139,31.5249263 18.7840539,31.6858974 19.3725416,31.6858974 C19.9610293,31.6858974 20.5127693,31.5249263 20.9879917,31.243673 Z" id="Oval-9-Copy-6" fill="#FFFFFF" filter="url(#filter-6)" sketch:type="MSShapeGroup"></path>
                                <path d="M87.6015507,26.8708535 C87.8810933,27.0222976 88.2056462,27.1089744 88.5518154,27.1089744 C89.6014489,27.1089744 90.4523449,26.3120795 90.4523449,25.3290598 C90.4523449,24.7990939 90.2050313,24.3232252 89.8125945,23.997159 C89.7377932,23.130014 88.9993489,22.4384343 88.0734423,22.3683801 C87.7252804,22.0008489 87.2171648,21.7692308 86.6512859,21.7692308 C85.6016525,21.7692308 84.7507564,22.5661256 84.7507564,23.5491453 C83.701123,23.5491453 82.8502269,24.3460402 82.8502269,25.3290598 C82.8502269,26.3120795 83.701123,27.1089744 84.7507564,27.1089744 C85.0969257,27.1089744 85.4214786,27.0222976 85.7010212,26.8708535 C85.9805638,27.0222976 86.3051167,27.1089744 86.6512859,27.1089744 C86.9974552,27.1089744 87.3220081,27.0222976 87.6015507,26.8708535 Z" id="Oval-9-Copy-5" fill="#FFFFFF" filter="url(#filter-7)" sketch:type="MSShapeGroup"></path>
                            </g>
                        </g>
                    </g>
                </g>
            </g>
        </g>
    </g>
</svg>